# Blender v2.81 (sub 16) OBJ File: 'pane.blend'
# www.blender.org
mtllib ironfence.mtl
o Cube
v 0.500000 0.500000 -0.127480
v 0.500000 -0.500000 -0.127480
v 0.500000 0.500000 0.127480
v 0.500000 -0.500000 0.127480
v -0.500000 0.500000 -0.127480
v -0.500000 -0.500000 -0.127480
v -0.500000 0.500000 0.127480
v -0.500000 -0.500000 0.127480
vt 0.000000 0.000000
vt 1.000000 0.000000
vt 1.000000 1.000000
vt 0.000000 1.000000
vt 0.000000 -0.000000
vt 1.000000 0.000000
vt 0.632973 -0.000000
vt 0.632973 1.000000
vt 0.399018 1.000000
vt 0.399018 0.000000
vt 1.000000 1.000000
vt 0.000000 1.000000
vt 0.632973 -0.000000
vt 0.632973 1.000000
vt 0.399018 1.000000
vt 0.399018 0.000000
vt 1.000000 -0.000000
vt 1.000000 1.000000
vt 0.000000 1.000000
vt -0.000000 0.000000
vn 0.0000 1.0000 0.0000
vn 0.0000 0.0000 1.0000
vn -1.0000 0.0000 0.0000
vn 0.0000 -1.0000 0.0000
vn 1.0000 0.0000 0.0000
vn 0.0000 0.0000 -1.0000
usemtl Material
s off
f 1/1/1 5/2/1 7/3/1 3/4/1
f 4/5/2 3/4/2 7/3/2 8/6/2
f 8/7/3 7/8/3 5/9/3 6/10/3
f 6/11/4 2/12/4 4/5/4 8/6/4
f 2/13/5 1/14/5 3/15/5 4/16/5
f 6/17/6 5/18/6 1/19/6 2/20/6
